<?xml version="1.0" encoding="UTF-8" standalone="no"?>
<svg
   version="1.0"
   width="2280.5pt"
   height="387.39627pt"
   viewBox="0 0 2280.5 387.39627"
   preserveAspectRatio="xMidYMid"
   id="svg24"
   sodipodi:docname="logo (2).svg"
   inkscape:version="1.2.1 (9c6d41e410, 2022-07-14)"
   xmlns:inkscape="http://www.inkscape.org/namespaces/inkscape"
   xmlns:sodipodi="http://sodipodi.sourceforge.net/DTD/sodipodi-0.dtd"
   xmlns="http://www.w3.org/2000/svg"
   xmlns:svg="http://www.w3.org/2000/svg">
  <defs
     id="defs28" />
  <sodipodi:namedview
     id="namedview26"
     pagecolor="#ffffff"
     bordercolor="#000000"
     borderopacity="0.25"
     inkscape:showpageshadow="2"
     inkscape:pageopacity="0.0"
     inkscape:pagecheckerboard="0"
     inkscape:deskcolor="#d1d1d1"
     inkscape:document-units="pt"
     showgrid="false"
     inkscape:zoom="0.32000001"
     inkscape:cx="1685.9374"
     inkscape:cy="554.68748"
     inkscape:window-width="1920"
     inkscape:window-height="1001"
     inkscape:window-x="-9"
     inkscape:window-y="-9"
     inkscape:window-maximized="1"
     inkscape:current-layer="svg24" />
  <g
     transform="matrix(0.1,0,0,-0.1,-95.5,434.51962)"
     fill="#000000"
     stroke="none"
     id="g22">
    <path
       d="m 2280,4340 c -591,-5 -661,-8 -715,-24 -303,-91 -527,-331 -596,-641 -11,-49 -14,-288 -14,-1270 V 1195 l 23,-85 c 80,-303 303,-527 610,-613 75,-21 96,-21 785,-25 389,-2 707,1 706,5 0,4 -70,52 -156,106 l -155,97 h -508 c -580,0 -610,3 -750,71 -170,84 -300,255 -335,442 -22,115 -22,2311 0,2432 41,229 218,421 455,492 47,14 129,17 600,20 l 545,4 98,97 c 53,53 97,99 97,102 0,3 -8,6 -17,5 -10,0 -313,-2 -673,-5 z"
       id="path4" />
    <path
       d="m 5027,4334 c -12,-6 -71,-34 -130,-63 -187,-92 -340,-221 -455,-384 -45,-64 -59,-78 -76,-74 -12,3 -56,14 -99,26 -606,161 -1266,-68 -1643,-572 -121,-161 -219,-362 -236,-482 -17,-120 -21,-285 -7,-332 18,-65 112,-219 173,-281 58,-60 151,-120 247,-157 230,-91 644,-93 919,-5 95,30 338,152 395,197 190,151 357,346 519,608 108,174 116,186 126,180 16,-10 86,-140 118,-220 103,-259 105,-540 7,-801 -158,-419 -591,-714 -1050,-714 -156,0 -357,46 -490,112 -158,79 -350,242 -441,374 -32,47 -46,57 -113,85 -42,17 -93,40 -113,50 -50,25 -49,15 6,-87 79,-147 152,-247 248,-340 272,-263 620,-389 1003,-362 444,32 831,287 1043,688 170,321 192,702 61,1042 -38,98 -74,166 -142,267 -48,71 -49,75 -37,110 6,20 18,45 26,56 15,19 16,19 51,-20 135,-154 250,-392 300,-617 25,-117 25,-419 0,-536 -35,-157 -104,-332 -179,-449 -95,-149 -263,-319 -413,-420 -376,-253 -871,-303 -1293,-132 -383,156 -667,451 -796,829 -22,62 -42,100 -76,140 -26,30 -66,83 -89,118 -53,79 -74,82 -65,10 40,-346 193,-658 444,-909 223,-223 393,-321 729,-421 l 136,-41 240,-19.07535 c 252,6 320,41.07535 505,101.07535 96,32 274,121 380,192 103,69 277,231 344,319 151,201 264,463 307,710 18,98 17,394 0,485 -58,306 -172,543 -372,775 l -61,70 23,37 c 98,159 231,253 424,303 39,10 70,23 70,28 0,18 -79,122 -97,128 -25,8 -194,-52 -262,-93 -121,-74 -235,-202 -328,-369 -15,-27 -39,-68 -53,-92 -14,-23 -19.9027,-43.9359 -23.0711,-50.1778 -9.6444,-19 -57.119,-112.9604 -66.9289,-131.8222 -4.1423,-7.9644 -11.1423,-18.0356 -11.1423,-25.0356 0,-8 -12.7154,-20.1422 -15.8577,-37.9644 -6,-12 -14,-27 -17,-34 -39,-75 -291,-442 -359,-523 -95,-113 -153,-164 -292,-258 -167,-111 -260,-151 -440,-189 -121,-26 -431,-25 -549,0 -198,43 -375,166 -438,304 -30,65 -40,159 -23,223 6,25 16,68 22,95 12,58 100,244 159,336 310,480 906,725 1462,603 40,-9 82,-19 95,-21 32,-7 37,-25 17,-62 -18,-36 -18,-36 -113,-11 -119,32 -236,43 -382,37 -202,-8 -348,-45 -530,-135 -186,-91 -351,-236 -490,-432 -85,-118 -99,-166 -100,-332 v -98 l 44,-57 c 55,-73 80,-95 134,-124 99,-51 321,-75 414,-45 24,7 66,19 93,26 28,7 77,25 110,40 33,15 74,30 90,34 106,27 381,248 531,427 129,155 254,363 289,479 13.8222,31.9289 27.7866,58.1423 29,70 24.8577,42.3599 110.5443,180 116,189 2.0735,3.4206 11.1509,15.9957 20.2825,28.8448 8.3966,11.8148 15.7281,23.2209 19.7175,30.1552 15.431,26.8222 81,130 142,188 108,105 207,163 333,198 54,15 122,17 650,13 654,-4 628,-1 775,-73 142,-70 265,-222 317,-389 17,-57 18,-124 18,-1270 V 1195 l -31,-85 C 6684,913 6537,773 6330,704 6280,688 6225,686 5760,682 l -515,-3 -97,-97 c -54,-53 -98,-100 -98,-105 0,-5 278,-7 618,-5 702,4 686,3 867,92 216,107 374,304 438,546 l 22,85 v 1215 1215 l -22,85 c -85,320 -348,568 -658,619 -96,16 -1257,20 -1288,5 z M 3950,3471 c 122,-13 230,-41 230,-59 0,-43 -159,-284 -263,-399 -66,-72 -176,-176 -232,-218 -63,-48 -242,-143 -345,-183 -57,-23 -80,-26 -190,-26 -113,-1 -130,1 -175,24 -27,13 -69,44 -92,67 -39,38 -43,47 -43,90 1,108 33,185 124,299 231,288 611,444 986,405 z"
       id="path6"
       sodipodi:nodetypes="ccccccscccccccccscccsccccccccccccccccccsccccccccccccsccccssscccccccccccccccccccccccsccccssscscccsccccccsccccccccccsccccccccc" />
    <path
       d="m 9390,3979 c -457,-30 -845,-299 -1055,-733 -117,-243 -167,-488 -166,-831 0,-411 81,-708 270,-995 68,-104 240,-279 336,-342 271,-179 583,-248 918,-203 452,60 800,321 964,725 17,41 38,107 47,145 10,39 20,78 22,88 5,16 -8,17 -179,17 h -185 l -21,-70 c -69,-226 -235,-407 -457,-498 -131,-54 -204,-67 -379,-67 -177,0 -257,15 -390,75 -215,96 -390,287 -490,533 -125,306 -137,804 -26,1129 65,190 187,376 321,486 81,66 238,144 350,173 122,32 347,33 473,1 306,-76 537,-297 607,-579 l 11,-43 h 185 186 l -7,33 c -51,235 -152,432 -304,590 -259,269 -607,393 -1031,366 z"
       id="path8" />
    <path
       d="m 16368,3458 -3,-273 -172,-3 -173,-2 v -145 -145 l 173,-2 172,-3 3,-760 c 1,-491 6,-779 13,-813 39,-194 215,-361 439,-418 134,-35 421,-11 420,35 -1,9 -15,79 -33,156 -31,135 -33,140 -57,138 -86,-9 -202,-6 -249,6 -66,17 -142,86 -162,147 -11,30 -14,201 -17,777 l -2,737 h 240 240 v 145 145 h -240 -240 v 275 275 h -175 -175 z"
       id="path10" />
    <path
       d="m 23434,3205 c -163,-36 -305,-129 -387,-253 -25,-37 -48,-77 -51,-89 -4,-13 -14,-23 -22,-23 -12,0 -14,29 -14,170 v 170 h -170 -170 l 2,-1137 3,-1138 h 175 175 l 5,785 c 4,549 9,794 17,815 40,106 95,187 166,243 114,91 216,125 372,126 61,1 136,-3 168,-7 l 57,-8 -2,178 -3,178 -130,2 c -79,1 -154,-4 -191,-12 z"
       id="path12" />
    <path
       d="m 12010,3199 c -449,-79 -767,-445 -829,-954 -16,-128 -14,-330 5,-452 41,-278 143,-491 317,-660 141,-138 286,-216 472,-254 115,-24 320,-25 435,-3 407,77 695,382 796,844 27,124 27,496 0,625 -91,432 -357,737 -731,836 -92,24 -369,35 -465,18 z m 323,-314 c 123,-22 216,-71 306,-163 91,-92 141,-175 181,-300 50,-154 63,-255 57,-437 -4,-128 -10,-180 -31,-260 -71,-272 -221,-454 -428,-520 -163,-52 -358,-40 -505,30 -58,27 -94,53 -152,113 -91,93 -133,161 -177,291 -101,293 -80,657 52,913 138,266 393,388 697,333 z"
       id="path14" />
    <path
       d="m 14595,3194 c -38,-8 -108,-34 -155,-56 -68,-33 -101,-57 -166,-122 -44,-44 -94,-105 -110,-133 -48,-88 -54,-75 -54,122 v 175 h -170 -170 V 2040 900 l 173,2 172,3 5,765 5,765 28,80 c 88,249 279,380 552,379 249,-1 412,-119 491,-354 17,-51 19,-112 24,-845 l 5,-790 173,-3 172,-2 v 790 c 0,815 -2,868 -42,1005 -71,247 -227,407 -473,485 -93,30 -353,38 -460,14 z"
       id="path16" />
    <path
       d="m 18423,3196 c -435,-83 -735,-427 -809,-928 -20,-133 -14,-427 10,-543 95,-456 378,-763 781,-846 122,-25 328,-25 450,0 291,60 521,237 662,509 110,210 149,407 140,702 -6,205 -28,325 -86,476 -68,177 -212,367 -356,469 -82,59 -212,120 -310,146 -102,28 -371,36 -482,15 z m 340,-311 c 322,-57 527,-358 544,-796 9,-227 -27,-413 -110,-574 -47,-91 -145,-201 -224,-251 -173,-112 -443,-122 -639,-24 -66,32 -97,56 -158,121 -161,171 -236,418 -223,729 13,281 89,484 241,636 144,145 341,200 569,159 z"
       id="path18" />
    <path
       d="m 20200,2389 c 0,-814 2,-867 42,-1004 67,-233 240,-414 458,-479 206,-61 479,-29 641,75 83,54 184,159 233,242 21,37 42,67 47,67 5,0 10,-87 11,-192 l 3,-193 173,-3 172,-2 v 1140 1140 h -175 -174 l -4,-752 c -3,-832 1,-779 -69,-910 -38,-71 -135,-173 -200,-212 -180,-105 -373,-120 -536,-40 -130,64 -214,170 -252,320 -19,74 -20,113 -20,836 v 758 h -175 -175 z"
       id="path20" />
  </g>
</svg>
